<svg width="161" height="50" xmlns="http://www.w3.org/2000/svg" xmlns:xlink="http://www.w3.org/1999/xlink"><defs><path id="a" d="M.016.007h42.819v42.848H.015z"/><path id="c" d="M.12.192h110.526v42.986H.12z"/></defs><g fill="none" fill-rule="evenodd"><g><mask id="b" fill="#fff"><use xlink:href="#a"/></mask><path d="M38.538.007a4.294 4.294 0 00-4.297 4.298 4.29 4.29 0 004.297 4.287 4.294 4.294 0 004.297-4.287A4.298 4.298 0 0038.538.007M29.113 18.061l5.37-7.056a1.09 1.09 0 00.056-1.237l-2.28-3.653a1.095 1.095 0 00-.935-.514l-9.842.068-5.397-.004c-.422 0-.61.53-.281.795l1.512 1.217c.213.172.465.288.733.338l9.373 1.763-11.594 12.44-15.26 2.164a.659.659 0 00-.39 1.102l1.49 1.595c.295.316.71.492 1.143.485l14.73-.241a3.073 3.073 0 001.546-.447l3.53-2.145 7.45 5.902c.293.233.484.57.535.94l1.418 10.424a.992.992 0 00.984.858h.759a.992.992 0 00.993-.988l.043-11.568a2.76 2.76 0 00-.545-1.657l-6.5-8.746 1.36-1.835" fill="#46BEDC" mask="url(#b)"/></g><path d="M66.744 15.281c0-2.129-1.667-3.444-3.838-3.444h-5.815v6.967h5.815c2.171 0 3.838-1.316 3.838-3.523zm-.542 17.534l-5.08-9.173h-4.031v9.173h-5.506V6.998h12.097c5.389 0 8.723 3.522 8.723 8.322 0 4.528-2.908 7.006-5.7 7.664l5.855 9.83h-6.358zM76.513 32.815V6.998h18.3v4.839H82.019v5.418h12.523v4.838H82.019v5.884h12.794v4.838h-18.3M114.275 15.32c0-2.168-1.668-3.483-3.838-3.483h-5.816v6.928h5.816c2.17 0 3.838-1.316 3.838-3.445zm-15.16 17.495V6.998h12.097c5.621 0 8.684 3.794 8.684 8.322 0 4.49-3.101 8.283-8.684 8.283h-6.591v9.212h-5.506zM123.113 32.815V6.998h5.545v20.979h10.933v4.838h-16.478" fill="#FFFFFE"/><g transform="translate(50.345 6.806)"><mask id="d" fill="#fff"><use xlink:href="#c"/></mask><path fill="#FFFFFE" mask="url(#d)" d="M95.254 26.009V15.442L85.33.192h6.281l6.397 10.334L104.404.192h6.242l-9.886 15.25V26.01h-5.506"/><path d="M5.53 34.325l-1.938 5.128H7.47L5.53 34.325zm3.263 8.869l-.791-2.08H3.059l-.791 2.08H.12L4.35 32.438H6.71l4.231 10.756H8.793zM12.105 43.178h1.89v-10.74h-1.89zM22.62 35.792c0-1.032-.775-1.693-1.841-1.693h-2.6v3.418h2.6c1.066 0 1.841-.677 1.841-1.725zm-.177 7.402l-2.375-4.016h-1.89v4.016h-1.89V32.438h4.733c2.132 0 3.538 1.37 3.538 3.37 0 1.903-1.26 2.951-2.569 3.16l2.65 4.226h-2.197zM34.687 43.194l-2.084-7.95-2.1 7.95h-2.019l-3.069-10.756h2.1l2.1 8.272 2.23-8.272h1.501l2.23 8.272 2.099-8.272h2.116l-3.085 10.756h-2.02M44.605 34.325l-1.938 5.128h3.877l-1.939-5.128zm3.263 8.869l-.791-2.08h-4.943l-.791 2.08h-2.149l4.232-10.756h2.358l4.232 10.756h-2.148zM51.05 43.194V32.438h1.89v9.095h4.75v1.66h-6.64M65.798 43.194l-3.602-4.548-.953 1.113v3.435h-1.89V32.438h1.89v5.111l4.216-5.111H67.8l-4.377 5.063 4.716 5.693h-2.342" fill="#46BEDC" mask="url(#d)"/></g></g></svg>
